%TF.GenerationSoftware,KiCad,Pcbnew,8.0.9-8.0.9-0~ubuntu22.04.1*%
%TF.CreationDate,2025-09-11T14:08:12-03:00*%
%TF.ProjectId,flatsat-power-adapt,666c6174-7361-4742-9d70-6f7765722d61,rev?*%
%TF.SameCoordinates,Original*%
%TF.FileFunction,Drillmap*%
%TF.FilePolarity,Positive*%
%FSLAX45Y45*%
G04 Gerber Fmt 4.5, Leading zero omitted, Abs format (unit mm)*
G04 Created by KiCad (PCBNEW 8.0.9-8.0.9-0~ubuntu22.04.1) date 2025-09-11 14:08:12*
%MOMM*%
%LPD*%
G01*
G04 APERTURE LIST*
%ADD10C,0.050000*%
%ADD11C,0.200000*%
G04 APERTURE END LIST*
D10*
X8949333Y-4850000D02*
X18949333Y-4850000D01*
X18949333Y-14850000D01*
X8949333Y-14850000D01*
X8949333Y-4850000D01*
D11*
X9207610Y-15163984D02*
X9207610Y-14963984D01*
X9207610Y-14963984D02*
X9255229Y-14963984D01*
X9255229Y-14963984D02*
X9283801Y-14973508D01*
X9283801Y-14973508D02*
X9302848Y-14992555D01*
X9302848Y-14992555D02*
X9312372Y-15011603D01*
X9312372Y-15011603D02*
X9321896Y-15049698D01*
X9321896Y-15049698D02*
X9321896Y-15078269D01*
X9321896Y-15078269D02*
X9312372Y-15116365D01*
X9312372Y-15116365D02*
X9302848Y-15135412D01*
X9302848Y-15135412D02*
X9283801Y-15154460D01*
X9283801Y-15154460D02*
X9255229Y-15163984D01*
X9255229Y-15163984D02*
X9207610Y-15163984D01*
X9407610Y-15163984D02*
X9407610Y-15030650D01*
X9407610Y-15068746D02*
X9417134Y-15049698D01*
X9417134Y-15049698D02*
X9426658Y-15040174D01*
X9426658Y-15040174D02*
X9445705Y-15030650D01*
X9445705Y-15030650D02*
X9464753Y-15030650D01*
X9531420Y-15163984D02*
X9531420Y-15030650D01*
X9531420Y-14963984D02*
X9521896Y-14973508D01*
X9521896Y-14973508D02*
X9531420Y-14983031D01*
X9531420Y-14983031D02*
X9540944Y-14973508D01*
X9540944Y-14973508D02*
X9531420Y-14963984D01*
X9531420Y-14963984D02*
X9531420Y-14983031D01*
X9655229Y-15163984D02*
X9636182Y-15154460D01*
X9636182Y-15154460D02*
X9626658Y-15135412D01*
X9626658Y-15135412D02*
X9626658Y-14963984D01*
X9759991Y-15163984D02*
X9740944Y-15154460D01*
X9740944Y-15154460D02*
X9731420Y-15135412D01*
X9731420Y-15135412D02*
X9731420Y-14963984D01*
X9988563Y-15163984D02*
X9988563Y-14963984D01*
X9988563Y-14963984D02*
X10055229Y-15106841D01*
X10055229Y-15106841D02*
X10121896Y-14963984D01*
X10121896Y-14963984D02*
X10121896Y-15163984D01*
X10302848Y-15163984D02*
X10302848Y-15059222D01*
X10302848Y-15059222D02*
X10293325Y-15040174D01*
X10293325Y-15040174D02*
X10274277Y-15030650D01*
X10274277Y-15030650D02*
X10236182Y-15030650D01*
X10236182Y-15030650D02*
X10217134Y-15040174D01*
X10302848Y-15154460D02*
X10283801Y-15163984D01*
X10283801Y-15163984D02*
X10236182Y-15163984D01*
X10236182Y-15163984D02*
X10217134Y-15154460D01*
X10217134Y-15154460D02*
X10207610Y-15135412D01*
X10207610Y-15135412D02*
X10207610Y-15116365D01*
X10207610Y-15116365D02*
X10217134Y-15097317D01*
X10217134Y-15097317D02*
X10236182Y-15087793D01*
X10236182Y-15087793D02*
X10283801Y-15087793D01*
X10283801Y-15087793D02*
X10302848Y-15078269D01*
X10398086Y-15030650D02*
X10398086Y-15230650D01*
X10398086Y-15040174D02*
X10417134Y-15030650D01*
X10417134Y-15030650D02*
X10455229Y-15030650D01*
X10455229Y-15030650D02*
X10474277Y-15040174D01*
X10474277Y-15040174D02*
X10483801Y-15049698D01*
X10483801Y-15049698D02*
X10493325Y-15068746D01*
X10493325Y-15068746D02*
X10493325Y-15125888D01*
X10493325Y-15125888D02*
X10483801Y-15144936D01*
X10483801Y-15144936D02*
X10474277Y-15154460D01*
X10474277Y-15154460D02*
X10455229Y-15163984D01*
X10455229Y-15163984D02*
X10417134Y-15163984D01*
X10417134Y-15163984D02*
X10398086Y-15154460D01*
X10579039Y-15144936D02*
X10588563Y-15154460D01*
X10588563Y-15154460D02*
X10579039Y-15163984D01*
X10579039Y-15163984D02*
X10569515Y-15154460D01*
X10569515Y-15154460D02*
X10579039Y-15144936D01*
X10579039Y-15144936D02*
X10579039Y-15163984D01*
X10579039Y-15040174D02*
X10588563Y-15049698D01*
X10588563Y-15049698D02*
X10579039Y-15059222D01*
X10579039Y-15059222D02*
X10569515Y-15049698D01*
X10569515Y-15049698D02*
X10579039Y-15040174D01*
X10579039Y-15040174D02*
X10579039Y-15059222D01*
M02*
