M48
; DRILL file {KiCad 8.0.9-8.0.9-0~ubuntu22.04.1} date 2025-09-11T14:08:12-0300
; FORMAT={-:-/ absolute / metric / decimal}
; #@! TF.CreationDate,2025-09-11T14:08:12-03:00
; #@! TF.GenerationSoftware,Kicad,Pcbnew,8.0.9-8.0.9-0~ubuntu22.04.1
; #@! TF.FileFunction,Plated,1,2,PTH
FMAT,2
METRIC
; #@! TA.AperFunction,Plated,PTH,ComponentDrill
T1C0.700
; #@! TA.AperFunction,Plated,PTH,ComponentDrill
T2C0.800
; #@! TA.AperFunction,Plated,PTH,ComponentDrill
T3C1.000
; #@! TA.AperFunction,Plated,PTH,ComponentDrill
T4C1.100
; #@! TA.AperFunction,Plated,PTH,ComponentDrill
T5C1.200
; #@! TA.AperFunction,Plated,PTH,ComponentDrill
T6C3.000
%
G90
G05
T1
X114.25Y-138.0
X114.25Y-141.0
X116.0Y-56.45
X116.0Y-58.95
X116.75Y-138.0
X116.75Y-141.0
X120.7Y-56.45
X120.7Y-58.95
T2
X124.85Y-91.4
X137.55Y-91.4
T3
X99.46Y-72.62
X99.46Y-75.16
X99.46Y-77.7
X99.46Y-80.24
X99.46Y-82.78
X99.46Y-85.32
X99.46Y-87.86
X99.46Y-90.4
X99.46Y-92.94
X99.46Y-95.48
X99.46Y-98.02
X99.46Y-100.56
X99.46Y-103.1
X99.46Y-105.64
X99.46Y-108.18
X99.46Y-110.72
X99.46Y-113.26
X99.46Y-115.8
X99.46Y-118.34
X99.46Y-120.88
X99.46Y-123.42
X99.46Y-125.96
X99.46Y-128.5
X99.46Y-131.04
X99.46Y-133.58
X99.46Y-136.12
X102.0Y-72.62
X102.0Y-75.16
X102.0Y-77.7
X102.0Y-80.24
X102.0Y-82.78
X102.0Y-85.32
X102.0Y-87.86
X102.0Y-90.4
X102.0Y-92.94
X102.0Y-95.48
X102.0Y-98.02
X102.0Y-100.56
X102.0Y-103.1
X102.0Y-105.64
X102.0Y-108.18
X102.0Y-110.72
X102.0Y-113.26
X102.0Y-115.8
X102.0Y-118.34
X102.0Y-120.88
X102.0Y-123.42
X102.0Y-125.96
X102.0Y-128.5
X102.0Y-131.04
X102.0Y-133.58
X102.0Y-136.12
X102.96Y-59.0
X105.5Y-59.0
X105.64Y-72.6
X105.64Y-75.14
X105.64Y-77.68
X105.64Y-80.22
X105.64Y-82.76
X105.64Y-85.3
X105.64Y-87.84
X105.64Y-90.38
X105.64Y-92.92
X105.64Y-95.46
X105.64Y-98.0
X105.64Y-100.54
X105.64Y-103.08
X105.64Y-105.62
X105.64Y-108.16
X105.64Y-110.7
X105.64Y-113.24
X105.64Y-115.78
X105.64Y-118.32
X105.64Y-120.86
X105.64Y-123.4
X105.64Y-125.94
X105.64Y-128.48
X105.64Y-131.02
X105.64Y-133.56
X105.64Y-136.1
X108.04Y-59.0
X108.18Y-72.6
X108.18Y-75.14
X108.18Y-77.68
X108.18Y-80.22
X108.18Y-82.76
X108.18Y-85.3
X108.18Y-87.84
X108.18Y-90.38
X108.18Y-92.92
X108.18Y-95.46
X108.18Y-98.0
X108.18Y-100.54
X108.18Y-103.08
X108.18Y-105.62
X108.18Y-108.16
X108.18Y-110.7
X108.18Y-113.24
X108.18Y-115.78
X108.18Y-118.32
X108.18Y-120.86
X108.18Y-123.4
X108.18Y-125.94
X108.18Y-128.48
X108.18Y-131.02
X108.18Y-133.56
X108.18Y-136.1
X110.58Y-59.0
X129.225Y-55.5
X131.765Y-55.5
X137.725Y-51.5
X140.265Y-51.5
T4
X124.82Y-102.52
X134.98Y-102.52
X139.5Y-106.42
X139.5Y-116.58
X145.9Y-82.5
X145.9Y-94.5
X145.92Y-106.5
X156.06Y-82.5
X156.06Y-94.5
X156.08Y-106.5
T5
X165.75Y-82.5
X165.75Y-94.55
X165.75Y-106.75
X165.75Y-118.75
X183.25Y-82.5
X183.25Y-94.55
X183.25Y-106.75
X183.25Y-118.75
T6
X98.59Y-67.37
X98.59Y-141.03
X184.62Y-63.56
X184.62Y-143.57
M30
